<?xml version="1.0" encoding="utf-8"?>
<!-- Generator: Adobe Illustrator 25.0.0, SVG Export Plug-In . SVG Version: 6.00 Build 0)  -->
<svg version="1.1" id="Layer_1" xmlns="http://www.w3.org/2000/svg" xmlns:xlink="http://www.w3.org/1999/xlink" x="0px" y="0px"
	 viewBox="0 0 100 99.8" style="enable-background:new 0 0 100 99.8;" xml:space="preserve">
<style type="text/css">
	.st0{display:none;}
	.st1{display:inline;stroke:#000000;stroke-width:4;stroke-miterlimit:10;}
	.st2{fill:#B9191E;}
	.st3{fill:#2E3576;}
	.st4{fill:#FEB303;}
</style>
<g class="st0">
	<rect x="-256.6" y="-123.4" class="st1" width="1243.2" height="369"/>
</g>
<g>
	<path class="st2" d="M21.7,68.5c5.8,0,10.5-4.7,10.5-10.5s-4.7-10.5-10.5-10.5s-10.5,4.7-10.5,10.5C11.2,63.7,15.9,68.5,21.7,68.5z
		"/>
	<path class="st2" d="M38.5,99.8V80.4c0-4.8-2.9-8.9-7.1-10.7c-2.6,2.2-6,3.5-9.7,3.5s-7-1.3-9.7-3.5C7.9,71.4,5,75.6,5,80.4v19.5
		h26.4H38.5z"/>
	<path class="st3" d="M67.7,57.9c0,5.8,4.7,10.5,10.5,10.5c5.8,0,10.5-4.7,10.5-10.5s-4.7-10.5-10.5-10.5
		C72.4,47.4,67.7,52.1,67.7,57.9z"/>
	<path class="st3" d="M78.3,73.1c-3.7,0-7-1.3-9.7-3.5c-4.2,1.8-7.1,5.9-7.1,10.7v19.5h7.1H95V80.4c0-4.8-2.9-8.9-7.1-10.7
		C85.3,71.8,81.9,73.1,78.3,73.1z"/>
	<path class="st4" d="M50,62.8c6.5,0,11.8-5.3,11.8-11.8S56.5,39.1,50,39.1s-11.8,5.3-11.8,11.8S43.5,62.8,50,62.8z"/>
	<path class="st4" d="M65.3,66.1c-1.2-1.2-2.7-2.2-4.4-2.8c-2.9,2.6-6.7,4.2-10.9,4.2s-8-1.6-10.9-4.2c-1.7,0.6-3.2,1.6-4.4,2.8
		c5,2.8,8.5,8.1,8.5,14.3v19.5h13.7V80.4C56.9,74.2,60.3,68.9,65.3,66.1z"/>
	<polygon class="st4" points="93.9,46.3 51.3,5.4 6.1,46.3 49.5,26.6 	"/>
</g>
</svg>
